<?xml version="1.0" encoding="UTF-8"?>
<svg version="1.1" xmlns="http://www.w3.org/2000/svg" width="180" height="180">
<path d="M0 0 C42.57 0 85.14 0 129 0 C129 42.57 129 85.14 129 129 C112.17 129 95.34 129 78 129 C78 145.83 78 162.66 78 180 C35.43 180 -7.14 180 -51 180 C-51 137.43 -51 94.86 -51 51 C-34.17 51 -17.34 51 0 51 C0 34.17 0 17.34 0 0 Z " fill="#F5E06A" transform="translate(51,0)"/>
<path d="M0 0 C8.58 0 17.16 0 26 0 C26 8.25 26 16.5 26 25 C34.25 25 42.5 25 51 25 C51 16.75 51 8.5 51 0 C59.58 0 68.16 0 77 0 C77 25.41 77 50.82 77 77 C51.59 77 26.18 77 0 77 C0 51.59 0 26.18 0 0 Z " fill="#020201" transform="translate(77,26)"/>
<path d="M0 0 C8.25 0 16.5 0 25 0 C25 17.16 25 34.32 25 52 C42.16 52 59.32 52 77 52 C77 60.25 77 68.5 77 77 C51.59 77 26.18 77 0 77 C0 51.59 0 26.18 0 0 Z " fill="#000000" transform="translate(26,77)"/>
</svg>
